<?xml version="1.0" standalone="no"?>
<!DOCTYPE svg PUBLIC "-//W3C//DTD SVG 20010904//EN"
 "http://www.w3.org/TR/2001/REC-SVG-20010904/DTD/svg10.dtd">
<svg version="1.0" xmlns="http://www.w3.org/2000/svg"
 width="540.000000pt" height="540.000000pt" viewBox="0 0 540.000000 540.000000"
 preserveAspectRatio="xMidYMid meet">
<metadata>
Created by potrace 1.14, written by Peter Selinger 2001-2017
</metadata>
<g transform="translate(0.000000,540.000000) scale(0.100000,-0.100000)"
fill="#000000" stroke="none">
<path d="M3835 3896 c-17 -13 -65 -31 -112 -41 -46 -10 -83 -23 -83 -28 0 -6
-3 -8 -6 -4 -4 3 -45 -14 -93 -38 -64 -32 -176 -74 -176 -67 0 0 -27 -5 -60
-12 -63 -13 -239 -14 -315 -2 -96 16 -135 23 -135 26 0 1 -7 3 -15 5 -9 1 -71
21 -139 44 -67 22 -133 43 -144 45 -12 2 -51 12 -87 21 -36 9 -85 19 -110 22
-66 7 -353 11 -365 4 -5 -3 -25 -6 -45 -6 -19 -1 -45 -5 -57 -9 -21 -7 -43
-12 -93 -22 -39 -8 -163 -54 -177 -66 -7 -6 -13 -8 -13 -4 0 4 -26 -8 -57 -25
-32 -18 -67 -37 -78 -43 -21 -11 -149 -104 -194 -141 -58 -47 -204 -185 -196
-185 3 0 -8 -12 -23 -27 -37 -37 -101 -124 -139 -193 -101 -181 -99 -365 6
-528 37 -57 197 -212 219 -212 20 0 61 -59 69 -100 16 -82 8 -199 -20 -276
-37 -105 -32 -148 42 -347 76 -203 78 -207 203 -268 27 -13 64 -11 77 5 12 14
31 14 106 2 27 -4 59 38 46 61 -5 10 -44 31 -88 47 -97 36 -137 76 -153 152
-24 113 16 221 119 324 36 37 79 86 96 111 16 24 32 46 36 49 6 6 49 97 49
106 0 3 9 19 20 34 17 24 25 27 48 21 29 -8 258 -6 332 3 41 5 103 13 170 22
49 6 96 14 145 24 142 28 160 29 233 11 135 -33 244 -225 289 -506 3 -21 8
-76 17 -203 6 -92 25 -124 95 -161 62 -32 89 -34 115 -9 14 14 28 17 65 12 37
-4 52 -2 64 11 36 35 15 60 -77 91 -78 26 -89 47 -89 164 1 106 7 147 37 246
24 79 66 185 77 194 4 3 10 16 14 30 4 14 21 44 36 67 16 23 29 44 29 48 0 7
77 113 97 133 7 7 13 17 13 21 0 4 20 29 45 56 25 28 62 70 82 95 55 67 254
248 302 276 76 42 124 52 194 37 34 -7 78 -15 97 -18 19 -4 40 -8 45 -9 6 -1
26 -6 45 -10 19 -5 40 -11 45 -14 31 -19 120 -21 155 -4 46 22 95 78 129 146
52 105 59 165 28 238 -19 45 -245 274 -330 333 -7 6 -38 28 -67 50 -65 48 -93
65 -190 112 -41 21 -89 52 -106 70 -37 39 -58 41 -99 9z"/>
</g>
</svg>
